<svg xmlns="http://www.w3.org/2000/svg" xmlns:xlink="http://www.w3.org/1999/xlink" viewBox="0.0 0.0 99.0 92.0">
  <path d="M 5.0,86.0 L 17.0,27.0 L 10.0,9.0 L 55.0,5.0 L 58.0,31.0 L 79.0,45.0 L 83.0,76.0 L 64.0,71.0 L 57.0,87.0 Z M 0.0,0.0 L 99.0,0.0 L 99.0,92.0 L 0.0,92.0" id="hole" style="fill:#00000066;fill-rule:evenodd;stroke:none;"></path>
  <g id="figure" style="fill:none;stroke:#ff0000;stroke-linecap:round" transform="translate(0.0, 0.0)">
    <path d="M 10.0,76.0 L 21.0,78.0"></path>
    <path d="M 21.0,78.0 L 23.0,67.0"></path>
    <path d="M 23.0,67.0 L 12.0,66.0"></path>
    <path d="M 12.0,66.0 L 10.0,76.0"></path>
    <path d="M 12.0,66.0 L 18.0,56.0"></path>
    <path d="M 18.0,56.0 L 23.0,67.0"></path>
    <path d="M 18.0,56.0 L 24.0,42.0"></path>
    <path d="M 24.0,42.0 L 30.0,48.0"></path>
    <path d="M 30.0,48.0 L 26.0,34.0"></path>
    <path d="M 26.0,34.0 L 24.0,42.0"></path>
    <path d="M 26.0,34.0 L 35.0,33.0"></path>
    <path d="M 35.0,33.0 L 37.0,41.0"></path>
    <path d="M 37.0,41.0 L 30.0,48.0"></path>
    <path d="M 35.0,33.0 L 58.0,34.0"></path>
    <path d="M 58.0,34.0 L 58.0,48.0"></path>
    <path d="M 58.0,48.0 L 30.0,48.0"></path>
    <path d="M 30.0,48.0 L 33.0,62.0"></path>
    <path d="M 33.0,62.0 L 55.0,62.0"></path>
    <path d="M 55.0,62.0 L 58.0,48.0"></path>
    <path d="M 33.0,62.0 L 32.0,71.0"></path>
    <path d="M 32.0,71.0 L 39.0,67.0"></path>
    <path d="M 39.0,67.0 L 33.0,62.0"></path>
    <path d="M 55.0,62.0 L 50.0,68.0"></path>
    <path d="M 50.0,68.0 L 56.0,70.0"></path>
    <path d="M 56.0,70.0 L 55.0,62.0"></path>
    <path d="M 39.0,67.0 L 37.0,73.0"></path>
    <path d="M 37.0,73.0 L 32.0,71.0"></path>
    <path d="M 50.0,68.0 L 51.0,73.0"></path>
    <path d="M 51.0,73.0 L 56.0,70.0"></path>
    <path d="M 37.0,73.0 L 41.0,74.0"></path>
    <path d="M 51.0,73.0 L 48.0,74.0"></path>
    <path d="M 41.0,74.0 L 42.0,69.0"></path>
    <path d="M 42.0,69.0 L 47.0,69.0"></path>
    <path d="M 47.0,69.0 L 48.0,74.0"></path>
    <path d="M 48.0,74.0 L 47.0,80.0"></path>
    <path d="M 47.0,80.0 L 42.0,80.0"></path>
    <path d="M 42.0,80.0 L 41.0,74.0"></path>
    <path d="M 58.0,48.0 L 63.0,45.0"></path>
    <path d="M 63.0,45.0 L 60.0,42.0"></path>
    <path d="M 60.0,42.0 L 63.0,39.0"></path>
    <path d="M 63.0,39.0 L 58.0,34.0"></path>
    <path d="M 63.0,39.0 L 79.0,31.0"></path>
    <path d="M 79.0,31.0 L 84.0,22.0"></path>
    <path d="M 84.0,22.0 L 84.0,31.0"></path>
    <path d="M 84.0,31.0 L 79.0,31.0"></path>
    <path d="M 84.0,31.0 L 89.0,31.0"></path>
    <path d="M 89.0,31.0 L 89.0,22.0"></path>
    <path d="M 89.0,22.0 L 84.0,22.0"></path>
    <path d="M 80.0,13.0 L 80.0,16.0"></path>
    <path d="M 80.0,16.0 L 94.0,16.0"></path>
    <path d="M 94.0,16.0 L 94.0,13.0"></path>
    <path d="M 94.0,13.0 L 80.0,13.0"></path>
    <path d="M 80.0,16.0 L 84.0,22.0"></path>
    <path d="M 63.0,45.0 L 71.0,53.0"></path>
    <path d="M 71.0,53.0 L 78.0,56.0"></path>
    <path d="M 78.0,56.0 L 72.0,60.0"></path>
    <path d="M 72.0,60.0 L 71.0,53.0"></path>
    <path d="M 72.0,60.0 L 75.0,63.0"></path>
    <path d="M 75.0,63.0 L 83.0,59.0"></path>
    <path d="M 83.0,59.0 L 78.0,56.0"></path>
    <path d="M 78.0,56.0 L 84.0,47.0"></path>
    <path d="M 84.0,47.0 L 91.0,55.0"></path>
    <path d="M 91.0,55.0 L 83.0,59.0"></path>
    <path d="M 35.0,33.0 L 45.0,32.0"></path>
    <path d="M 45.0,32.0 L 58.0,34.0"></path>
    <path d="M 45.0,32.0 L 52.0,30.0"></path>
    <path d="M 52.0,30.0 L 45.0,24.0"></path>
    <path d="M 45.0,24.0 L 42.0,24.0"></path>
    <path d="M 42.0,24.0 L 38.0,31.0"></path>
    <path d="M 38.0,31.0 L 45.0,32.0"></path>
    <path d="M 42.0,24.0 L 40.0,21.0"></path>
    <path d="M 40.0,21.0 L 31.0,26.0"></path>
    <path d="M 31.0,26.0 L 38.0,31.0"></path>
    <path d="M 40.0,21.0 L 37.0,18.0"></path>
    <path d="M 37.0,18.0 L 30.0,22.0"></path>
    <path d="M 30.0,22.0 L 31.0,26.0"></path>
    <path d="M 45.0,24.0 L 46.0,19.0"></path>
    <path d="M 46.0,19.0 L 56.0,21.0"></path>
    <path d="M 56.0,21.0 L 52.0,30.0"></path>
    <path d="M 56.0,21.0 L 56.0,17.0"></path>
    <path d="M 56.0,17.0 L 49.0,15.0"></path>
    <path d="M 49.0,15.0 L 46.0,19.0"></path>
  </g>
</svg>