<svg xmlns="http://www.w3.org/2000/svg" xmlns:xlink="http://www.w3.org/1999/xlink" viewBox="0.0 0.0 82.0 70.0">
  <path d="M 17.0,63.0 L 17.0,28.0 L 7.0,28.0 L 7.0,8.0 L 17.0,8.0 L 17.0,13.0 L 27.0,13.0 L 27.0,8.0 L 37.0,8.0 L 37.0,13.0 L 47.0,13.0 L 47.0,8.0 L 57.0,8.0 L 57.0,13.0 L 67.0,13.0 L 67.0,8.0 L 77.0,8.0 L 77.0,28.0 L 67.0,28.0 L 67.0,63.0 Z M 0.0,0.0 L 82.0,0.0 L 82.0,70.0 L 0.0,70.0" id="hole" style="fill:#00000066;fill-rule:evenodd;stroke:none;"></path>
  <g id="figure" style="fill:none;stroke:#ff0000;stroke-linecap:round" transform="translate(2.0, 3.0)">
    <path d="M 6.0,16.0 L 3.0,7.0"></path>
    <path d="M 3.0,7.0 L 5.0,2.0"></path>
    <path d="M 5.0,2.0 L 13.0,10.0"></path>
    <path d="M 13.0,10.0 L 6.0,16.0"></path>
    <path d="M 13.0,10.0 L 22.0,11.0"></path>
    <path d="M 22.0,11.0 L 30.0,6.0"></path>
    <path d="M 30.0,6.0 L 32.0,10.0"></path>
    <path d="M 32.0,10.0 L 25.0,18.0"></path>
    <path d="M 25.0,18.0 L 22.0,11.0"></path>
    <path d="M 6.0,16.0 L 8.0,30.0"></path>
    <path d="M 8.0,30.0 L 17.0,33.0"></path>
    <path d="M 17.0,33.0 L 30.0,23.0"></path>
    <path d="M 30.0,23.0 L 25.0,18.0"></path>
    <path d="M 20.0,50.0 L 20.0,55.0"></path>
    <path d="M 20.0,55.0 L 16.0,56.0"></path>
    <path d="M 16.0,56.0 L 16.0,58.0"></path>
    <path d="M 16.0,58.0 L 23.0,58.0"></path>
    <path d="M 23.0,58.0 L 27.0,51.0"></path>
    <path d="M 27.0,51.0 L 28.0,56.0"></path>
    <path d="M 28.0,56.0 L 24.0,60.0"></path>
    <path d="M 24.0,60.0 L 24.0,62.0"></path>
    <path d="M 24.0,62.0 L 30.0,62.0"></path>
    <path d="M 30.0,62.0 L 34.0,51.0"></path>
    <path d="M 34.0,51.0 L 27.0,51.0"></path>
    <path d="M 27.0,51.0 L 20.0,50.0"></path>
    <path d="M 8.0,30.0 L 13.0,46.0"></path>
    <path d="M 13.0,46.0 L 20.0,50.0"></path>
    <path d="M 34.0,51.0 L 30.0,23.0"></path>
    <path d="M 30.0,23.0 L 42.0,24.0"></path>
    <path d="M 42.0,24.0 L 57.0,21.0"></path>
    <path d="M 57.0,21.0 L 54.0,45.0"></path>
    <path d="M 54.0,45.0 L 34.0,51.0"></path>
    <path d="M 58.0,46.0 L 57.0,50.0"></path>
    <path d="M 57.0,50.0 L 53.0,51.0"></path>
    <path d="M 53.0,51.0 L 53.0,53.0"></path>
    <path d="M 53.0,53.0 L 59.0,53.0"></path>
    <path d="M 59.0,53.0 L 62.0,48.0"></path>
    <path d="M 62.0,48.0 L 60.0,55.0"></path>
    <path d="M 60.0,55.0 L 57.0,56.0"></path>
    <path d="M 57.0,56.0 L 57.0,58.0"></path>
    <path d="M 57.0,58.0 L 63.0,58.0"></path>
    <path d="M 63.0,58.0 L 66.0,48.0"></path>
    <path d="M 66.0,48.0 L 62.0,48.0"></path>
    <path d="M 62.0,48.0 L 58.0,46.0"></path>
    <path d="M 58.0,46.0 L 54.0,45.0"></path>
    <path d="M 66.0,48.0 L 74.0,32.0"></path>
    <path d="M 74.0,32.0 L 68.0,23.0"></path>
    <path d="M 68.0,23.0 L 57.0,21.0"></path>
  </g>
</svg>