<svg xmlns="http://www.w3.org/2000/svg" xmlns:xlink="http://www.w3.org/1999/xlink" viewBox="0.0 0.0 90.0 75.0">
  <path d="M 22.0,22.0 L 51.0,5.0 L 81.0,22.0 L 85.0,56.0 L 31.0,70.0 L 5.0,51.0 Z M 0.0,0.0 L 90.0,0.0 L 90.0,75.0 L 0.0,75.0" id="hole" style="fill:#00000066;fill-rule:evenodd;stroke:none;"></path>
  <g id="figure" style="fill:none;stroke:#ff0000;stroke-linecap:round" transform="translate(5.0, 5.0)">
    <path d="M 64.0,0.0 L 34.0,15.0"></path>
    <path d="M 64.0,0.0 L 53.0,30.0"></path>
    <path d="M 34.0,15.0 L 53.0,43.0"></path>
    <path d="M 34.0,15.0 L 19.0,45.0"></path>
    <path d="M 53.0,30.0 L 19.0,45.0"></path>
    <path d="M 53.0,30.0 L 0.0,12.0"></path>
    <path d="M 53.0,43.0 L 19.0,45.0"></path>
    <path d="M 53.0,43.0 L 34.0,14.0"></path>
    <path d="M 19.0,45.0 L 34.0,14.0"></path>
    <path d="M 19.0,45.0 L 0.0,12.0"></path>
    <path d="M 34.0,14.0 L 0.0,12.0"></path>
  </g>
</svg>