<svg xmlns="http://www.w3.org/2000/svg" xmlns:xlink="http://www.w3.org/1999/xlink" viewBox="0.0 0.0 50.0 50.0">
  <path d="M 33.0,5.0 L 36.0,10.0 L 45.0,11.0 L 45.0,21.0 L 40.0,24.0 L 29.0,19.0 L 30.0,26.0 L 30.0,32.0 L 31.0,39.0 L 33.0,45.0 L 22.0,44.0 L 5.0,45.0 L 15.0,38.0 L 23.0,33.0 L 15.0,29.0 L 7.0,29.0 L 12.0,20.0 L 5.0,18.0 L 5.0,5.0 L 15.0,5.0 L 22.0,6.0 Z M 0.0,0.0 L 50.0,0.0 L 50.0,50.0 L 0.0,50.0" id="hole" style="fill:#00000066;fill-rule:evenodd;stroke:none;"></path>
  <g id="figure" style="fill:none;stroke:#ff0000;stroke-linecap:round" transform="translate(5.0, 5.0)">
    <path d="M 0.0,20.0 L 20.0,0.0"></path>
    <path d="M 0.0,20.0 L 20.0,40.0"></path>
    <path d="M 20.0,0.0 L 40.0,20.0"></path>
    <path d="M 20.0,40.0 L 40.0,20.0"></path>
  </g>
</svg>