<svg xmlns="http://www.w3.org/2000/svg" xmlns:xlink="http://www.w3.org/1999/xlink" viewBox="0.0 0.0 50.0 51.0">
  <path d="M 8.0,5.0 L 14.0,5.0 L 14.0,13.0 L 17.0,21.0 L 23.0,9.0 L 24.0,23.0 L 33.0,11.0 L 37.0,5.0 L 45.0,5.0 L 41.0,12.0 L 42.0,19.0 L 40.0,27.0 L 30.0,26.0 L 32.0,32.0 L 35.0,39.0 L 31.0,46.0 L 23.0,37.0 L 22.0,45.0 L 13.0,46.0 L 5.0,46.0 L 8.0,38.0 L 5.0,32.0 L 11.0,31.0 L 11.0,25.0 L 5.0,16.0 L 5.0,10.0 Z M 0.0,0.0 L 50.0,0.0 L 50.0,51.0 L 0.0,51.0" id="hole" style="fill:#00000066;fill-rule:evenodd;stroke:none;"></path>
  <g id="figure" style="fill:none;stroke:#ff0000;stroke-linecap:round" transform="translate(5.0, 5.0)">
    <path d="M 0.0,20.0 L 20.0,0.0"></path>
    <path d="M 0.0,20.0 L 20.0,40.0"></path>
    <path d="M 20.0,0.0 L 40.0,20.0"></path>
    <path d="M 20.0,40.0 L 40.0,20.0"></path>
  </g>
</svg>