<svg xmlns="http://www.w3.org/2000/svg" xmlns:xlink="http://www.w3.org/1999/xlink" viewBox="0.0 0.0 100.0 115.0">
  <path d="M 40.0,70.0 L 25.0,75.0 L 25.0,65.0 L 5.0,55.0 L 20.0,45.0 L 15.0,30.0 L 20.0,30.0 L 20.0,15.0 L 35.0,25.0 L 45.0,35.0 L 45.0,15.0 L 55.0,20.0 L 70.0,5.0 L 75.0,25.0 L 80.0,25.0 L 70.0,45.0 L 85.0,45.0 L 95.0,50.0 L 90.0,65.0 L 75.0,70.0 L 80.0,85.0 L 55.0,80.0 L 50.0,85.0 L 45.0,70.0 L 40.0,110.0 L 35.0,110.0 Z M 0.0,0.0 L 100.0,0.0 L 100.0,115.0 L 0.0,115.0" id="hole" style="fill:#00000066;fill-rule:evenodd;stroke:none;"></path>
  <g id="figure" style="fill:none;stroke:#ff0000;stroke-linecap:round" transform="translate(-10.0, 0.0)">
    <path d="M 50.0,25.0 L 60.0,20.0"></path>
    <path d="M 60.0,20.0 L 70.0,25.0"></path>
    <path d="M 70.0,25.0 L 75.0,35.0"></path>
    <path d="M 75.0,35.0 L 65.0,45.0"></path>
    <path d="M 65.0,45.0 L 55.0,45.0"></path>
    <path d="M 55.0,45.0 L 45.0,35.0"></path>
    <path d="M 45.0,35.0 L 50.0,25.0"></path>
    <path d="M 70.0,25.0 L 80.0,25.0"></path>
    <path d="M 80.0,25.0 L 85.0,10.0"></path>
    <path d="M 50.0,25.0 L 40.0,25.0"></path>
    <path d="M 40.0,25.0 L 35.0,10.0"></path>
    <path d="M 65.0,45.0 L 70.0,50.0"></path>
    <path d="M 70.0,50.0 L 70.0,60.0"></path>
    <path d="M 70.0,60.0 L 65.0,65.0"></path>
    <path d="M 65.0,65.0 L 65.0,70.0"></path>
    <path d="M 55.0,45.0 L 50.0,50.0"></path>
    <path d="M 50.0,50.0 L 50.0,60.0"></path>
    <path d="M 50.0,60.0 L 55.0,65.0"></path>
    <path d="M 55.0,65.0 L 55.0,70.0"></path>
    <path d="M 70.0,50.0 L 80.0,40.0"></path>
    <path d="M 80.0,40.0 L 90.0,35.0"></path>
    <path d="M 50.0,50.0 L 40.0,40.0"></path>
    <path d="M 40.0,40.0 L 30.0,35.0"></path>
    <path d="M 70.0,60.0 L 90.0,55.0"></path>
    <path d="M 90.0,55.0 L 105.0,70.0"></path>
    <path d="M 50.0,60.0 L 30.0,55.0"></path>
    <path d="M 30.0,55.0 L 15.0,70.0"></path>
    <path d="M 65.0,70.0 L 70.0,75.0"></path>
    <path d="M 70.0,75.0 L 70.0,95.0"></path>
    <path d="M 70.0,95.0 L 60.0,105.0"></path>
    <path d="M 60.0,105.0 L 50.0,95.0"></path>
    <path d="M 50.0,95.0 L 50.0,75.0"></path>
    <path d="M 50.0,75.0 L 55.0,70.0"></path>
    <path d="M 55.0,65.0 L 35.0,75.0"></path>
    <path d="M 35.0,75.0 L 25.0,100.0"></path>
    <path d="M 65.0,65.0 L 85.0,75.0"></path>
    <path d="M 85.0,75.0 L 95.0,100.0"></path>
    <path d="M 55.0,70.0 L 65.0,70.0"></path>
  </g>
</svg>