<svg xmlns="http://www.w3.org/2000/svg" xmlns:xlink="http://www.w3.org/1999/xlink" viewBox="0.0 0.0 54.0 59.0">
  <path d="M 19.0,15.0 L 26.0,11.0 L 33.0,6.0 L 41.0,5.0 L 49.0,5.0 L 48.0,13.0 L 49.0,21.0 L 49.0,29.0 L 44.0,40.0 L 35.0,45.0 L 44.0,48.0 L 32.0,54.0 L 25.0,54.0 L 15.0,48.0 L 7.0,44.0 L 5.0,37.0 L 5.0,10.0 L 12.0,17.0 Z M 0.0,0.0 L 54.0,0.0 L 54.0,59.0 L 0.0,59.0" id="hole" style="fill:#00000066;fill-rule:evenodd;stroke:none;"></path>
  <g id="figure" style="fill:none;stroke:#ff0000;stroke-linecap:round" transform="translate(5.0, 5.0)">
    <path d="M 24.0,0.0 L 0.0,15.0"></path>
    <path d="M 24.0,0.0 L 44.0,20.0"></path>
    <path d="M 0.0,15.0 L 20.0,35.0"></path>
    <path d="M 0.0,15.0 L 24.0,6.0"></path>
    <path d="M 44.0,20.0 L 20.0,35.0"></path>
    <path d="M 20.0,35.0 L 24.0,6.0"></path>
  </g>
</svg>