<svg xmlns="http://www.w3.org/2000/svg" xmlns:xlink="http://www.w3.org/1999/xlink" viewBox="0.0 0.0 67.0 79.0">
  <path d="M 37.0,5.0 L 62.0,25.0 L 56.0,32.0 L 51.0,42.0 L 62.0,44.0 L 61.0,55.0 L 62.0,71.0 L 49.0,74.0 L 31.0,74.0 L 40.0,63.0 L 33.0,51.0 L 22.0,59.0 L 5.0,62.0 L 7.0,52.0 L 7.0,42.0 L 13.0,33.0 L 5.0,23.0 L 5.0,11.0 L 14.0,11.0 L 25.0,9.0 Z M 0.0,0.0 L 67.0,0.0 L 67.0,79.0 L 0.0,79.0" id="hole" style="fill:#00000066;fill-rule:evenodd;stroke:none;"></path>
  <g id="figure" style="fill:none;stroke:#ff0000;stroke-linecap:round" transform="translate(5.0, 5.0)">
    <path d="M 0.0,0.0 L 0.0,34.0"></path>
    <path d="M 0.0,0.0 L 30.0,17.0"></path>
    <path d="M 0.0,34.0 L 0.0,69.0"></path>
    <path d="M 0.0,34.0 L 27.0,51.0"></path>
    <path d="M 0.0,34.0 L 30.0,17.0"></path>
    <path d="M 0.0,69.0 L 27.0,51.0"></path>
    <path d="M 27.0,51.0 L 30.0,17.0"></path>
  </g>
</svg>