<svg xmlns="http://www.w3.org/2000/svg" xmlns:xlink="http://www.w3.org/1999/xlink" viewBox="0.0 0.0 46.0 51.0">
  <path d="M 19.0,25.0 L 17.0,18.0 L 13.0,13.0 L 13.0,5.0 L 22.0,8.0 L 28.0,5.0 L 34.0,7.0 L 37.0,12.0 L 41.0,16.0 L 41.0,23.0 L 25.0,15.0 L 30.0,25.0 L 32.0,34.0 L 28.0,40.0 L 27.0,46.0 L 19.0,46.0 L 13.0,40.0 L 5.0,35.0 L 10.0,31.0 L 7.0,22.0 Z M 0.0,0.0 L 46.0,0.0 L 46.0,51.0 L 0.0,51.0" id="hole" style="fill:#00000066;fill-rule:evenodd;stroke:none;"></path>
  <g id="figure" style="fill:none;stroke:#ff0000;stroke-linecap:round" transform="translate(5.0, 5.0)">
    <path d="M 0.0,7.0 L 0.0,31.0"></path>
    <path d="M 0.0,7.0 L 22.0,0.0"></path>
    <path d="M 0.0,31.0 L 22.0,38.0"></path>
    <path d="M 22.0,0.0 L 36.0,19.0"></path>
    <path d="M 22.0,38.0 L 36.0,19.0"></path>
  </g>
</svg>