<svg xmlns="http://www.w3.org/2000/svg" xmlns:xlink="http://www.w3.org/1999/xlink" viewBox="0.0 0.0 46.0 81.0">
  <path d="M 5.0,24.0 L 6.0,13.0 L 5.0,5.0 L 29.0,5.0 L 31.0,17.0 L 41.0,9.0 L 38.0,22.0 L 41.0,30.0 L 41.0,48.0 L 39.0,56.0 L 41.0,65.0 L 39.0,76.0 L 32.0,66.0 L 25.0,69.0 L 17.0,76.0 L 5.0,76.0 L 5.0,68.0 L 6.0,52.0 L 5.0,42.0 L 7.0,33.0 Z M 0.0,0.0 L 46.0,0.0 L 46.0,81.0 L 0.0,81.0" id="hole" style="fill:#00000066;fill-rule:evenodd;stroke:none;"></path>
  <g id="figure" style="fill:none;stroke:#ff0000;stroke-linecap:round" transform="translate(5.0, 5.0)">
    <path d="M 14.0,34.0 L 0.0,0.0"></path>
    <path d="M 14.0,34.0 L 36.0,3.0"></path>
    <path d="M 34.0,2.0 L 0.0,0.0"></path>
    <path d="M 34.0,2.0 L 15.0,31.0"></path>
    <path d="M 0.0,0.0 L 15.0,31.0"></path>
    <path d="M 0.0,0.0 L 36.0,3.0"></path>
    <path d="M 15.0,31.0 L 36.0,3.0"></path>
  </g>
</svg>