<svg xmlns="http://www.w3.org/2000/svg" xmlns:xlink="http://www.w3.org/1999/xlink" viewBox="0.0 0.0 99.0 83.0">
  <path d="M 5.0,46.0 L 26.0,32.0 L 74.0,5.0 L 94.0,25.0 L 74.0,45.0 L 33.0,78.0 L 5.0,74.0 Z M 0.0,0.0 L 99.0,0.0 L 99.0,83.0 L 0.0,83.0" id="hole" style="fill:#00000066;fill-rule:evenodd;stroke:none;"></path>
  <g id="figure" style="fill:none;stroke:#ff0000;stroke-linecap:round" transform="translate(5.0, 5.0)">
    <path d="M 10.0,0.0 L 8.0,28.0"></path>
    <path d="M 10.0,0.0 L 33.0,11.0"></path>
    <path d="M 8.0,28.0 L 0.0,55.0"></path>
    <path d="M 33.0,11.0 L 9.0,27.0"></path>
    <path d="M 33.0,11.0 L 34.0,40.0"></path>
    <path d="M 0.0,55.0 L 9.0,27.0"></path>
    <path d="M 9.0,27.0 L 34.0,40.0"></path>
    <path d="M 9.0,27.0 L 10.0,55.0"></path>
    <path d="M 34.0,40.0 L 57.0,24.0"></path>
    <path d="M 34.0,40.0 L 10.0,55.0"></path>
    <path d="M 57.0,24.0 L 35.0,42.0"></path>
    <path d="M 10.0,55.0 L 35.0,42.0"></path>
  </g>
</svg>