<svg xmlns="http://www.w3.org/2000/svg" xmlns:xlink="http://www.w3.org/1999/xlink" viewBox="0.0 0.0 72.0 71.0">
  <path d="M 5.0,12.0 L 27.0,5.0 L 67.0,31.0 L 59.0,53.0 L 44.0,60.0 L 20.0,66.0 L 5.0,36.0 Z M 0.0,0.0 L 72.0,0.0 L 72.0,71.0 L 0.0,71.0" id="hole" style="fill:#00000066;fill-rule:evenodd;stroke:none;"></path>
  <g id="figure" style="fill:none;stroke:#ff0000;stroke-linecap:round" transform="translate(5.0, 5.0)">
    <path d="M 53.0,0.0 L 30.0,7.0"></path>
    <path d="M 53.0,0.0 L 55.0,23.0"></path>
    <path d="M 30.0,7.0 L 20.0,28.0"></path>
    <path d="M 0.0,15.0 L 20.0,28.0"></path>
    <path d="M 0.0,15.0 L 22.0,4.0"></path>
    <path d="M 55.0,23.0 L 35.0,10.0"></path>
    <path d="M 20.0,28.0 L 35.0,10.0"></path>
    <path d="M 20.0,28.0 L 22.0,4.0"></path>
    <path d="M 35.0,10.0 L 33.0,37.0"></path>
    <path d="M 22.0,4.0 L 17.0,20.0"></path>
    <path d="M 17.0,20.0 L 33.0,37.0"></path>
  </g>
</svg>