<svg xmlns="http://www.w3.org/2000/svg" xmlns:xlink="http://www.w3.org/1999/xlink" viewBox="0.0 0.0 46.0 48.0">
  <path d="M 28.0,5.0 L 37.0,7.0 L 29.0,11.0 L 36.0,14.0 L 41.0,17.0 L 41.0,31.0 L 34.0,23.0 L 29.0,27.0 L 26.0,32.0 L 35.0,37.0 L 23.0,39.0 L 15.0,43.0 L 17.0,35.0 L 11.0,33.0 L 5.0,37.0 L 5.0,25.0 L 13.0,27.0 L 10.0,19.0 L 6.0,11.0 L 5.0,5.0 L 11.0,5.0 L 17.0,8.0 L 22.0,5.0 Z M 0.0,0.0 L 46.0,0.0 L 46.0,48.0 L 0.0,48.0" id="hole" style="fill:#00000066;fill-rule:evenodd;stroke:none;"></path>
  <g id="figure" style="fill:none;stroke:#ff0000;stroke-linecap:round" transform="translate(5.0, 5.0)">
    <path d="M 0.0,7.0 L 0.0,31.0"></path>
    <path d="M 0.0,7.0 L 22.0,0.0"></path>
    <path d="M 0.0,31.0 L 22.0,38.0"></path>
    <path d="M 22.0,0.0 L 36.0,19.0"></path>
    <path d="M 22.0,38.0 L 36.0,19.0"></path>
  </g>
</svg>