<svg xmlns="http://www.w3.org/2000/svg" xmlns:xlink="http://www.w3.org/1999/xlink" viewBox="0.0 0.0 78.0 98.0">
  <path d="M 5.0,5.0 L 55.0,14.0 L 73.0,59.0 L 52.0,69.0 L 5.0,21.0 Z M 0.0,0.0 L 78.0,0.0 L 78.0,98.0 L 0.0,98.0" id="hole" style="fill:#00000066;fill-rule:evenodd;stroke:none;"></path>
  <g id="figure" style="fill:none;stroke:#ff0000;stroke-linecap:round" transform="translate(5.0, 5.0)">
    <path d="M 0.0,11.0 L 11.0,0.0"></path>
    <path d="M 11.0,0.0 L 30.0,37.0"></path>
    <path d="M 30.0,37.0 L 14.0,45.0"></path>
    <path d="M 14.0,45.0 L 0.0,11.0"></path>
    <path d="M 30.0,37.0 L 67.0,64.0"></path>
    <path d="M 67.0,64.0 L 56.0,85.0"></path>
    <path d="M 56.0,85.0 L 30.0,56.0"></path>
    <path d="M 30.0,56.0 L 30.0,37.0"></path>
    <path d="M 14.0,45.0 L 14.0,59.0"></path>
    <path d="M 14.0,59.0 L 30.0,56.0"></path>
    <path d="M 30.0,56.0 L 14.0,88.0"></path>
    <path d="M 14.0,88.0 L 1.0,85.0"></path>
    <path d="M 1.0,85.0 L 14.0,59.0"></path>
    <path d="M 14.0,59.0 L 8.0,56.0"></path>
    <path d="M 8.0,56.0 L 14.0,45.0"></path>
  </g>
</svg>