<svg xmlns="http://www.w3.org/2000/svg" xmlns:xlink="http://www.w3.org/1999/xlink" viewBox="0.0 0.0 69.0 121.0">
  <path d="M 10.0,12.0 L 44.0,5.0 L 64.0,38.0 L 61.0,81.0 L 50.0,115.0 L 11.0,116.0 L 5.0,78.0 L 5.0,44.0 Z M 0.0,0.0 L 69.0,0.0 L 69.0,121.0 L 0.0,121.0" id="hole" style="fill:#00000066;fill-rule:evenodd;stroke:none;"></path>
  <g id="figure" style="fill:none;stroke:#ff0000;stroke-linecap:round" transform="translate(5.0, 5.0)">
    <path d="M 4.0,8.0 L 6.0,42.0"></path>
    <path d="M 4.0,8.0 L 23.0,34.0"></path>
    <path d="M 4.0,8.0 L 35.0,23.0"></path>
    <path d="M 6.0,42.0 L 37.0,19.0"></path>
    <path d="M 6.0,42.0 L 35.0,23.0"></path>
    <path d="M 23.0,34.0 L 16.0,0.0"></path>
    <path d="M 37.0,19.0 L 5.0,42.0"></path>
    <path d="M 35.0,23.0 L 38.0,56.0"></path>
    <path d="M 35.0,23.0 L 0.0,35.0"></path>
    <path d="M 16.0,0.0 L 0.0,35.0"></path>
    <path d="M 5.0,42.0 L 38.0,56.0"></path>
    <path d="M 38.0,56.0 L 0.0,35.0"></path>
  </g>
</svg>