<svg xmlns="http://www.w3.org/2000/svg" xmlns:xlink="http://www.w3.org/1999/xlink" viewBox="0.0 0.0 100.0 100.0">
  <path d="M 5.0,5.0 L 35.0,15.0 L 65.0,15.0 L 95.0,5.0 L 95.0,50.0 L 70.0,70.0 L 70.0,90.0 L 50.0,95.0 L 30.0,90.0 L 30.0,70.0 L 5.0,50.0 Z M 0.0,0.0 L 100.0,0.0 L 100.0,100.0 L 0.0,100.0" id="hole" style="fill:#00000066;fill-rule:evenodd;stroke:none;"></path>
  <g id="figure" style="fill:none;stroke:#ff0000;stroke-linecap:round" transform="translate(0.0, 0.0)">
    <path d="M 50.0,95.0 L 60.0,80.0"></path>
    <path d="M 60.0,80.0 L 40.0,80.0"></path>
    <path d="M 40.0,80.0 L 50.0,95.0"></path>
    <path d="M 60.0,80.0 L 70.0,65.0"></path>
    <path d="M 70.0,65.0 L 30.0,65.0"></path>
    <path d="M 30.0,65.0 L 40.0,80.0"></path>
    <path d="M 30.0,65.0 L 20.0,50.0"></path>
    <path d="M 70.0,65.0 L 80.0,50.0"></path>
    <path d="M 30.0,55.0 L 30.0,50.0"></path>
    <path d="M 30.0,50.0 L 35.0,45.0"></path>
    <path d="M 35.0,45.0 L 40.0,45.0"></path>
    <path d="M 40.0,45.0 L 45.0,50.0"></path>
    <path d="M 45.0,50.0 L 45.0,55.0"></path>
    <path d="M 45.0,55.0 L 40.0,60.0"></path>
    <path d="M 40.0,60.0 L 35.0,60.0"></path>
    <path d="M 35.0,60.0 L 30.0,55.0"></path>
    <path d="M 65.0,60.0 L 70.0,55.0"></path>
    <path d="M 70.0,55.0 L 70.0,50.0"></path>
    <path d="M 70.0,50.0 L 65.0,45.0"></path>
    <path d="M 65.0,45.0 L 60.0,45.0"></path>
    <path d="M 60.0,45.0 L 55.0,50.0"></path>
    <path d="M 55.0,50.0 L 55.0,55.0"></path>
    <path d="M 55.0,55.0 L 60.0,60.0"></path>
    <path d="M 60.0,60.0 L 65.0,60.0"></path>
    <path d="M 20.0,50.0 L 10.0,35.0"></path>
    <path d="M 90.0,35.0 L 80.0,50.0"></path>
    <path d="M 80.0,50.0 L 70.0,50.0"></path>
    <path d="M 55.0,50.0 L 45.0,50.0"></path>
    <path d="M 30.0,50.0 L 20.0,50.0"></path>
    <path d="M 30.0,5.0 L 15.0,5.0"></path>
    <path d="M 15.0,5.0 L 10.0,10.0"></path>
    <path d="M 10.0,10.0 L 10.0,25.0"></path>
    <path d="M 10.0,25.0 L 15.0,30.0"></path>
    <path d="M 15.0,30.0 L 30.0,30.0"></path>
    <path d="M 40.0,5.0 L 40.0,20.0"></path>
    <path d="M 40.0,20.0 L 40.0,30.0"></path>
    <path d="M 40.0,30.0 L 60.0,30.0"></path>
    <path d="M 60.0,30.0 L 55.0,20.0"></path>
    <path d="M 55.0,20.0 L 60.0,5.0"></path>
    <path d="M 60.0,5.0 L 40.0,5.0"></path>
    <path d="M 40.0,20.0 L 55.0,20.0"></path>
    <path d="M 90.0,5.0 L 80.0,30.0"></path>
    <path d="M 80.0,30.0 L 70.0,5.0"></path>
    <path d="M 30.0,30.0 L 30.0,35.0"></path>
    <path d="M 60.0,30.0 L 60.0,35.0"></path>
    <path d="M 80.0,30.0 L 80.0,35.0"></path>
    <path d="M 90.0,35.0 L 80.0,35.0"></path>
    <path d="M 80.0,35.0 L 60.0,35.0"></path>
    <path d="M 60.0,35.0 L 30.0,35.0"></path>
    <path d="M 30.0,35.0 L 10.0,35.0"></path>
  </g>
</svg>