<svg xmlns="http://www.w3.org/2000/svg" xmlns:xlink="http://www.w3.org/1999/xlink" viewBox="0.0 0.0 74.0 77.0">
  <path d="M 37.0,5.0 L 48.0,11.0 L 57.0,5.0 L 69.0,8.0 L 69.0,24.0 L 65.0,40.0 L 60.0,48.0 L 69.0,58.0 L 58.0,61.0 L 65.0,71.0 L 41.0,71.0 L 28.0,72.0 L 8.0,72.0 L 7.0,59.0 L 6.0,42.0 L 5.0,26.0 L 5.0,10.0 L 16.0,5.0 L 27.0,6.0 Z M 0.0,0.0 L 74.0,0.0 L 74.0,77.0 L 0.0,77.0" id="hole" style="fill:#00000066;fill-rule:evenodd;stroke:none;"></path>
  <g id="figure" style="fill:none;stroke:#ff0000;stroke-linecap:round" transform="translate(5.0, 5.0)">
    <path d="M 28.0,0.0 L 23.0,32.0"></path>
    <path d="M 28.0,0.0 L 34.0,64.0"></path>
    <path d="M 28.0,0.0 L 56.0,16.0"></path>
    <path d="M 23.0,32.0 L 34.0,64.0"></path>
    <path d="M 23.0,32.0 L 56.0,16.0"></path>
    <path d="M 23.0,32.0 L 0.0,58.0"></path>
    <path d="M 34.0,64.0 L 0.0,58.0"></path>
    <path d="M 56.0,16.0 L 21.0,29.0"></path>
    <path d="M 0.0,58.0 L 21.0,29.0"></path>
  </g>
</svg>