<svg xmlns="http://www.w3.org/2000/svg" xmlns:xlink="http://www.w3.org/1999/xlink" viewBox="0.0 0.0 85.0 97.0">
  <path d="M 6.0,5.0 L 20.0,6.0 L 42.0,54.0 L 22.0,92.0 L 5.0,32.0 Z M 0.0,0.0 L 85.0,0.0 L 85.0,97.0 L 0.0,97.0" id="hole" style="fill:#00000066;fill-rule:evenodd;stroke:none;"></path>
  <g id="figure" style="fill:none;stroke:#ff0000;stroke-linecap:round" transform="translate(5.0, 5.0)">
    <path d="M 0.0,33.0 L 11.0,64.0"></path>
    <path d="M 0.0,33.0 L 24.0,21.0"></path>
    <path d="M 0.0,33.0 L 24.0,45.0"></path>
    <path d="M 0.0,33.0 L 60.0,0.0"></path>
    <path d="M 11.0,64.0 L 23.0,82.0"></path>
    <path d="M 11.0,64.0 L 24.0,45.0"></path>
    <path d="M 23.0,82.0 L 47.0,78.0"></path>
    <path d="M 24.0,21.0 L 24.0,45.0"></path>
    <path d="M 24.0,21.0 L 46.0,14.0"></path>
    <path d="M 24.0,45.0 L 46.0,52.0"></path>
    <path d="M 46.0,14.0 L 60.0,0.0"></path>
    <path d="M 46.0,14.0 L 60.0,33.0"></path>
    <path d="M 46.0,52.0 L 47.0,78.0"></path>
    <path d="M 46.0,52.0 L 60.0,33.0"></path>
    <path d="M 46.0,52.0 L 69.0,56.0"></path>
    <path d="M 47.0,78.0 L 69.0,56.0"></path>
    <path d="M 60.0,0.0 L 75.0,16.0"></path>
    <path d="M 60.0,33.0 L 69.0,56.0"></path>
    <path d="M 60.0,33.0 L 75.0,16.0"></path>
    <path d="M 69.0,56.0 L 75.0,16.0"></path>
  </g>
</svg>