<svg xmlns="http://www.w3.org/2000/svg" xmlns:xlink="http://www.w3.org/1999/xlink" viewBox="0.0 0.0 66.0 63.0">
  <path d="M 5.0,10.0 L 11.0,5.0 L 39.0,5.0 L 41.0,13.0 L 48.0,20.0 L 53.0,5.0 L 61.0,7.0 L 61.0,47.0 L 57.0,54.0 L 50.0,58.0 L 42.0,57.0 L 33.0,58.0 L 24.0,57.0 L 12.0,58.0 L 16.0,45.0 L 5.0,48.0 Z M 0.0,0.0 L 66.0,0.0 L 66.0,63.0 L 0.0,63.0" id="hole" style="fill:#00000066;fill-rule:evenodd;stroke:none;"></path>
  <g id="figure" style="fill:none;stroke:#ff0000;stroke-linecap:round" transform="translate(5.0, 5.0)">
    <path d="M 26.0,21.0 L 48.0,10.0"></path>
    <path d="M 26.0,21.0 L 25.0,44.0"></path>
    <path d="M 48.0,10.0 L 25.0,7.0"></path>
    <path d="M 48.0,10.0 L 0.0,20.0"></path>
    <path d="M 25.0,44.0 L 10.0,25.0"></path>
    <path d="M 25.0,44.0 L 10.0,0.0"></path>
    <path d="M 25.0,7.0 L 10.0,25.0"></path>
    <path d="M 25.0,7.0 L 0.0,20.0"></path>
    <path d="M 10.0,25.0 L 10.0,0.0"></path>
    <path d="M 0.0,20.0 L 10.0,0.0"></path>
  </g>
</svg>