<svg xmlns="http://www.w3.org/2000/svg" xmlns:xlink="http://www.w3.org/1999/xlink" viewBox="0.0 0.0 85.0 99.0">
  <path d="M 27.0,5.0 L 26.0,18.0 L 48.0,13.0 L 23.0,50.0 L 62.0,18.0 L 62.0,36.0 L 53.0,46.0 L 66.0,50.0 L 79.0,47.0 L 80.0,94.0 L 68.0,84.0 L 53.0,94.0 L 54.0,77.0 L 66.0,64.0 L 48.0,58.0 L 41.0,75.0 L 30.0,89.0 L 20.0,81.0 L 9.0,94.0 L 6.0,77.0 L 5.0,56.0 L 11.0,45.0 L 18.0,35.0 L 5.0,30.0 L 9.0,18.0 L 10.0,6.0 Z M 0.0,0.0 L 85.0,0.0 L 85.0,99.0 L 0.0,99.0" id="hole" style="fill:#00000066;fill-rule:evenodd;stroke:none;"></path>
  <g id="figure" style="fill:none;stroke:#ff0000;stroke-linecap:round" transform="translate(5.0, 5.0)">
    <path d="M 10.0,10.0 L 10.0,44.0"></path>
    <path d="M 10.0,10.0 L 40.0,27.0"></path>
    <path d="M 10.0,44.0 L 18.0,77.0"></path>
    <path d="M 10.0,44.0 L 40.0,27.0"></path>
    <path d="M 18.0,77.0 L 51.0,79.0"></path>
    <path d="M 40.0,27.0 L 65.0,50.0"></path>
    <path d="M 51.0,79.0 L 65.0,50.0"></path>
  </g>
</svg>