<svg xmlns="http://www.w3.org/2000/svg" xmlns:xlink="http://www.w3.org/1999/xlink" viewBox="0.0 0.0 70.0 84.0">
  <path d="M 19.0,5.0 L 29.0,18.0 L 20.0,32.0 L 32.0,35.0 L 47.0,23.0 L 36.0,5.0 L 50.0,6.0 L 65.0,12.0 L 65.0,25.0 L 50.0,35.0 L 59.0,41.0 L 47.0,52.0 L 62.0,56.0 L 64.0,67.0 L 65.0,79.0 L 55.0,79.0 L 54.0,67.0 L 29.0,79.0 L 15.0,79.0 L 18.0,65.0 L 7.0,61.0 L 9.0,51.0 L 19.0,46.0 L 8.0,37.0 L 6.0,26.0 L 10.0,12.0 Z M 0.0,0.0 L 70.0,0.0 L 70.0,84.0 L 0.0,84.0" id="hole" style="fill:#00000066;fill-rule:evenodd;stroke:none;"></path>
  <g id="figure" style="fill:none;stroke:#ff0000;stroke-linecap:round" transform="translate(5.0, 5.0)">
    <path d="M 0.0,0.0 L 0.0,34.0"></path>
    <path d="M 0.0,0.0 L 30.0,17.0"></path>
    <path d="M 0.0,34.0 L 5.0,72.0"></path>
    <path d="M 0.0,34.0 L 30.0,17.0"></path>
    <path d="M 5.0,72.0 L 43.0,74.0"></path>
    <path d="M 30.0,17.0 L 60.0,40.0"></path>
    <path d="M 43.0,74.0 L 60.0,40.0"></path>
  </g>
</svg>