<svg xmlns="http://www.w3.org/2000/svg" xmlns:xlink="http://www.w3.org/1999/xlink" viewBox="0.0 0.0 95.0 109.0">
  <path d="M 29.0,37.0 L 70.0,5.0 L 90.0,25.0 L 83.0,66.0 L 58.0,96.0 L 7.0,94.0 L 5.0,65.0 Z M 0.0,0.0 L 95.0,0.0 L 95.0,109.0 L 0.0,109.0" id="hole" style="fill:#00000066;fill-rule:evenodd;stroke:none;"></path>
  <g id="figure" style="fill:none;stroke:#ff0000;stroke-linecap:round" transform="translate(5.0, 5.0)">
    <path d="M 0.0,82.0 L 22.0,99.0"></path>
    <path d="M 0.0,82.0 L 0.0,46.0"></path>
    <path d="M 0.0,82.0 L 25.0,67.0"></path>
    <path d="M 22.0,99.0 L 4.0,79.0"></path>
    <path d="M 22.0,99.0 L 5.0,51.0"></path>
    <path d="M 0.0,46.0 L 25.0,67.0"></path>
    <path d="M 0.0,46.0 L 18.0,29.0"></path>
    <path d="M 0.0,46.0 L 18.0,0.0"></path>
    <path d="M 25.0,67.0 L 4.0,79.0"></path>
    <path d="M 25.0,67.0 L 32.0,41.0"></path>
    <path d="M 4.0,79.0 L 5.0,51.0"></path>
    <path d="M 18.0,29.0 L 18.0,0.0"></path>
    <path d="M 18.0,29.0 L 14.0,58.0"></path>
    <path d="M 5.0,51.0 L 32.0,41.0"></path>
    <path d="M 5.0,51.0 L 39.0,65.0"></path>
    <path d="M 32.0,41.0 L 14.0,58.0"></path>
    <path d="M 32.0,41.0 L 39.0,65.0"></path>
    <path d="M 18.0,0.0 L 21.0,29.0"></path>
    <path d="M 14.0,58.0 L 39.0,65.0"></path>
    <path d="M 14.0,58.0 L 21.0,29.0"></path>
    <path d="M 39.0,65.0 L 21.0,29.0"></path>
  </g>
</svg>