<svg xmlns="http://www.w3.org/2000/svg" xmlns:xlink="http://www.w3.org/1999/xlink" viewBox="0.0 0.0 81.0 86.0">
  <path d="M 28.0,5.0 L 54.0,5.0 L 65.0,10.0 L 76.0,5.0 L 76.0,20.0 L 68.0,29.0 L 60.0,39.0 L 64.0,49.0 L 76.0,56.0 L 76.0,69.0 L 75.0,81.0 L 28.0,81.0 L 5.0,72.0 L 29.0,65.0 L 31.0,54.0 L 30.0,43.0 L 18.0,35.0 L 5.0,41.0 L 7.0,28.0 L 5.0,16.0 L 16.0,10.0 Z M 0.0,0.0 L 81.0,0.0 L 81.0,86.0 L 0.0,86.0" id="hole" style="fill:#00000066;fill-rule:evenodd;stroke:none;"></path>
  <g id="figure" style="fill:none;stroke:#ff0000;stroke-linecap:round" transform="translate(5.0, 5.0)">
    <path d="M 42.0,54.0 L 53.0,27.0"></path>
    <path d="M 42.0,54.0 L 24.0,31.0"></path>
    <path d="M 53.0,27.0 L 24.0,31.0"></path>
    <path d="M 53.0,27.0 L 31.0,9.0"></path>
    <path d="M 53.0,27.0 L 26.0,37.0"></path>
    <path d="M 24.0,31.0 L 0.0,54.0"></path>
    <path d="M 31.0,9.0 L 26.0,37.0"></path>
    <path d="M 31.0,9.0 L 58.0,0.0"></path>
    <path d="M 26.0,37.0 L 0.0,54.0"></path>
    <path d="M 26.0,37.0 L 53.0,28.0"></path>
    <path d="M 58.0,0.0 L 53.0,28.0"></path>
  </g>
</svg>