<svg xmlns="http://www.w3.org/2000/svg" xmlns:xlink="http://www.w3.org/1999/xlink" viewBox="0.0 0.0 104.0 93.0">
  <path d="M 25.0,44.0 L 30.0,23.0 L 45.0,5.0 L 58.0,5.0 L 73.0,23.0 L 77.0,44.0 L 94.0,51.0 L 99.0,65.0 L 84.0,72.0 L 62.0,76.0 L 41.0,76.0 L 20.0,71.0 L 5.0,65.0 L 12.0,51.0 Z M 0.0,0.0 L 104.0,0.0 L 104.0,93.0 L 0.0,93.0" id="hole" style="fill:#00000066;fill-rule:evenodd;stroke:none;"></path>
  <g id="figure" style="fill:none;stroke:#ff0000;stroke-linecap:round" transform="translate(0.0, -6.0)">
    <path d="M 28.0,94.0 L 45.0,93.0"></path>
    <path d="M 45.0,93.0 L 44.0,88.0"></path>
    <path d="M 44.0,88.0 L 41.0,86.0"></path>
    <path d="M 41.0,86.0 L 41.0,90.0"></path>
    <path d="M 41.0,90.0 L 31.0,88.0"></path>
    <path d="M 31.0,88.0 L 27.0,90.0"></path>
    <path d="M 27.0,90.0 L 28.0,94.0"></path>
    <path d="M 41.0,90.0 L 45.0,93.0"></path>
    <path d="M 57.0,88.0 L 60.0,87.0"></path>
    <path d="M 60.0,87.0 L 61.0,90.0"></path>
    <path d="M 61.0,90.0 L 68.0,89.0"></path>
    <path d="M 68.0,89.0 L 69.0,94.0"></path>
    <path d="M 69.0,94.0 L 57.0,94.0"></path>
    <path d="M 57.0,94.0 L 57.0,88.0"></path>
    <path d="M 61.0,90.0 L 57.0,94.0"></path>
    <path d="M 44.0,88.0 L 57.0,88.0"></path>
    <path d="M 60.0,87.0 L 68.0,83.0"></path>
    <path d="M 68.0,83.0 L 65.0,72.0"></path>
    <path d="M 65.0,72.0 L 35.0,68.0"></path>
    <path d="M 35.0,68.0 L 35.0,81.0"></path>
    <path d="M 35.0,81.0 L 41.0,86.0"></path>
    <path d="M 35.0,68.0 L 30.0,70.0"></path>
    <path d="M 30.0,70.0 L 35.0,81.0"></path>
    <path d="M 65.0,72.0 L 70.0,68.0"></path>
    <path d="M 70.0,68.0 L 72.0,73.0"></path>
    <path d="M 72.0,73.0 L 68.0,83.0"></path>
    <path d="M 72.0,73.0 L 81.0,71.0"></path>
    <path d="M 81.0,71.0 L 84.0,67.0"></path>
    <path d="M 84.0,67.0 L 85.0,71.0"></path>
    <path d="M 85.0,71.0 L 81.0,71.0"></path>
    <path d="M 85.0,71.0 L 85.0,82.0"></path>
    <path d="M 85.0,82.0 L 89.0,87.0"></path>
    <path d="M 89.0,87.0 L 80.0,84.0"></path>
    <path d="M 80.0,84.0 L 85.0,82.0"></path>
    <path d="M 35.0,81.0 L 22.0,72.0"></path>
    <path d="M 22.0,72.0 L 20.0,69.0"></path>
    <path d="M 20.0,69.0 L 18.0,72.0"></path>
    <path d="M 18.0,72.0 L 22.0,72.0"></path>
    <path d="M 20.0,69.0 L 25.0,54.0"></path>
    <path d="M 25.0,54.0 L 23.0,45.0"></path>
    <path d="M 23.0,45.0 L 32.0,50.0"></path>
    <path d="M 32.0,50.0 L 25.0,54.0"></path>
    <path d="M 35.0,68.0 L 42.0,55.0"></path>
    <path d="M 42.0,55.0 L 50.0,49.0"></path>
    <path d="M 50.0,49.0 L 55.0,55.0"></path>
    <path d="M 55.0,55.0 L 65.0,72.0"></path>
    <path d="M 55.0,55.0 L 57.0,47.0"></path>
    <path d="M 57.0,47.0 L 66.0,43.0"></path>
    <path d="M 66.0,43.0 L 64.0,34.0"></path>
    <path d="M 64.0,34.0 L 74.0,38.0"></path>
    <path d="M 74.0,38.0 L 72.0,30.0"></path>
    <path d="M 72.0,30.0 L 64.0,34.0"></path>
    <path d="M 66.0,43.0 L 74.0,38.0"></path>
    <path d="M 42.0,55.0 L 37.0,47.0"></path>
    <path d="M 37.0,47.0 L 39.0,34.0"></path>
    <path d="M 39.0,34.0 L 44.0,29.0"></path>
    <path d="M 44.0,29.0 L 33.0,28.0"></path>
    <path d="M 33.0,28.0 L 39.0,34.0"></path>
    <path d="M 44.0,29.0 L 39.0,22.0"></path>
    <path d="M 39.0,22.0 L 33.0,28.0"></path>
  </g>
</svg>