<svg xmlns="http://www.w3.org/2000/svg" xmlns:xlink="http://www.w3.org/1999/xlink" viewBox="0.0 0.0 62.0 113.0">
  <path d="M 26.0,40.0 L 5.0,27.0 L 31.0,19.0 L 5.0,13.0 L 20.0,5.0 L 50.0,5.0 L 57.0,17.0 L 57.0,53.0 L 56.0,65.0 L 54.0,91.0 L 43.0,78.0 L 22.0,90.0 L 36.0,97.0 L 29.0,108.0 L 7.0,108.0 L 5.0,90.0 L 5.0,57.0 L 13.0,46.0 Z M 0.0,0.0 L 62.0,0.0 L 62.0,113.0 L 0.0,113.0" id="hole" style="fill:#00000066;fill-rule:evenodd;stroke:none;"></path>
  <g id="figure" style="fill:none;stroke:#ff0000;stroke-linecap:round" transform="translate(5.0, 5.0)">
    <path d="M 0.0,75.0 L 20.0,55.0"></path>
    <path d="M 0.0,75.0 L 20.0,95.0"></path>
    <path d="M 7.0,0.0 L 10.0,26.0"></path>
    <path d="M 7.0,0.0 L 29.0,13.0"></path>
    <path d="M 10.0,26.0 L 20.0,55.0"></path>
    <path d="M 10.0,26.0 L 29.0,13.0"></path>
    <path d="M 20.0,55.0 L 40.0,75.0"></path>
    <path d="M 20.0,55.0 L 46.0,52.0"></path>
    <path d="M 20.0,95.0 L 40.0,75.0"></path>
    <path d="M 29.0,13.0 L 48.0,28.0"></path>
    <path d="M 40.0,75.0 L 46.0,52.0"></path>
    <path d="M 46.0,52.0 L 48.0,28.0"></path>
  </g>
</svg>