<svg xmlns="http://www.w3.org/2000/svg" xmlns:xlink="http://www.w3.org/1999/xlink" viewBox="0.0 0.0 99.0 101.0">
  <path d="M 24.0,24.0 L 20.0,5.0 L 27.0,20.0 L 28.0,40.0 L 72.0,43.0 L 38.0,72.0 L 66.0,96.0 L 11.0,77.0 L 13.0,64.0 L 5.0,55.0 Z M 0.0,0.0 L 99.0,0.0 L 99.0,101.0 L 0.0,101.0" id="hole" style="fill:#00000066;fill-rule:evenodd;stroke:none;"></path>
  <g id="figure" style="fill:none;stroke:#ff0000;stroke-linecap:round" transform="translate(5.0, 5.0)">
    <path d="M 44.0,58.0 L 44.0,0.0"></path>
    <path d="M 44.0,0.0 L 27.0,41.0"></path>
    <path d="M 27.0,41.0 L 44.0,58.0"></path>
    <path d="M 27.0,41.0 L 30.0,53.0"></path>
    <path d="M 30.0,53.0 L 44.0,58.0"></path>
    <path d="M 44.0,58.0 L 44.0,63.0"></path>
    <path d="M 44.0,63.0 L 33.0,68.0"></path>
    <path d="M 33.0,68.0 L 30.0,53.0"></path>
    <path d="M 44.0,63.0 L 56.0,68.0"></path>
    <path d="M 56.0,68.0 L 59.0,53.0"></path>
    <path d="M 59.0,53.0 L 44.0,58.0"></path>
    <path d="M 44.0,58.0 L 61.0,41.0"></path>
    <path d="M 61.0,41.0 L 59.0,53.0"></path>
    <path d="M 61.0,41.0 L 44.0,0.0"></path>
    <path d="M 56.0,68.0 L 89.0,21.0"></path>
    <path d="M 89.0,21.0 L 44.0,63.0"></path>
    <path d="M 33.0,68.0 L 9.0,34.0"></path>
    <path d="M 9.0,34.0 L 14.0,34.0"></path>
    <path d="M 14.0,34.0 L 44.0,63.0"></path>
    <path d="M 14.0,34.0 L 0.0,48.0"></path>
    <path d="M 0.0,48.0 L 9.0,34.0"></path>
  </g>
</svg>