<svg xmlns="http://www.w3.org/2000/svg" xmlns:xlink="http://www.w3.org/1999/xlink" viewBox="0.0 0.0 89.0 92.0">
  <path d="M 18.0,28.0 L 63.0,5.0 L 84.0,15.0 L 81.0,41.0 L 67.0,67.0 L 55.0,85.0 L 30.0,87.0 L 8.0,80.0 L 5.0,49.0 Z M 0.0,0.0 L 89.0,0.0 L 89.0,92.0 L 0.0,92.0" id="hole" style="fill:#00000066;fill-rule:evenodd;stroke:none;"></path>
  <g id="figure" style="fill:none;stroke:#ff0000;stroke-linecap:round" transform="translate(5.0, 5.0)">
    <path d="M 30.0,43.0 L 44.0,23.0"></path>
    <path d="M 30.0,43.0 L 55.0,45.0"></path>
    <path d="M 46.0,24.0 L 45.0,0.0"></path>
    <path d="M 46.0,24.0 L 55.0,45.0"></path>
    <path d="M 45.0,0.0 L 33.0,20.0"></path>
    <path d="M 44.0,23.0 L 55.0,45.0"></path>
    <path d="M 44.0,23.0 L 27.0,43.0"></path>
    <path d="M 55.0,45.0 L 27.0,43.0"></path>
    <path d="M 55.0,45.0 L 31.0,44.0"></path>
    <path d="M 55.0,45.0 L 38.0,67.0"></path>
    <path d="M 33.0,20.0 L 31.0,44.0"></path>
    <path d="M 27.0,43.0 L 38.0,67.0"></path>
    <path d="M 27.0,43.0 L 0.0,39.0"></path>
    <path d="M 31.0,44.0 L 35.0,64.0"></path>
    <path d="M 31.0,44.0 L 38.0,67.0"></path>
    <path d="M 31.0,44.0 L 53.0,52.0"></path>
    <path d="M 35.0,64.0 L 53.0,52.0"></path>
    <path d="M 38.0,67.0 L 53.0,52.0"></path>
    <path d="M 38.0,67.0 L 49.0,46.0"></path>
    <path d="M 0.0,39.0 L 23.0,42.0"></path>
    <path d="M 49.0,46.0 L 23.0,42.0"></path>
  </g>
</svg>