<svg xmlns="http://www.w3.org/2000/svg" xmlns:xlink="http://www.w3.org/1999/xlink" viewBox="0.0 0.0 152.0 126.0">
  <path d="M 46.0,5.0 L 147.0,72.0 L 141.0,101.0 L 107.0,121.0 L 56.0,98.0 L 25.0,68.0 L 5.0,48.0 Z M 0.0,0.0 L 152.0,0.0 L 152.0,126.0 L 0.0,126.0" id="hole" style="fill:#00000066;fill-rule:evenodd;stroke:none;"></path>
  <g id="figure" style="fill:none;stroke:#ff0000;stroke-linecap:round" transform="translate(5.0, 5.0)">
    <path d="M 20.0,54.0 L 25.0,26.0"></path>
    <path d="M 20.0,54.0 L 48.0,59.0"></path>
    <path d="M 20.0,54.0 L 53.0,31.0"></path>
    <path d="M 25.0,26.0 L 53.0,31.0"></path>
    <path d="M 25.0,26.0 L 50.0,45.0"></path>
    <path d="M 48.0,59.0 L 53.0,31.0"></path>
    <path d="M 48.0,59.0 L 24.0,36.0"></path>
    <path d="M 53.0,31.0 L 24.0,36.0"></path>
    <path d="M 53.0,31.0 L 82.0,38.0"></path>
    <path d="M 50.0,45.0 L 82.0,38.0"></path>
    <path d="M 10.0,16.0 L 24.0,36.0"></path>
    <path d="M 10.0,16.0 L 22.0,35.0"></path>
    <path d="M 10.0,16.0 L 44.0,22.0"></path>
    <path d="M 24.0,36.0 L 44.0,22.0"></path>
    <path d="M 82.0,38.0 L 73.0,8.0"></path>
    <path d="M 22.0,35.0 L 44.0,22.0"></path>
    <path d="M 22.0,35.0 L 26.0,0.0"></path>
    <path d="M 44.0,22.0 L 73.0,8.0"></path>
    <path d="M 44.0,22.0 L 26.0,0.0"></path>
    <path d="M 73.0,8.0 L 45.0,24.0"></path>
    <path d="M 0.0,25.0 L 26.0,0.0"></path>
    <path d="M 0.0,25.0 L 38.0,34.0"></path>
    <path d="M 26.0,0.0 L 45.0,24.0"></path>
    <path d="M 26.0,0.0 L 38.0,34.0"></path>
    <path d="M 45.0,24.0 L 23.0,8.0"></path>
    <path d="M 38.0,34.0 L 23.0,8.0"></path>
  </g>
</svg>