<svg xmlns="http://www.w3.org/2000/svg" xmlns:xlink="http://www.w3.org/1999/xlink" viewBox="0.0 0.0 70.0 108.0">
  <path d="M 19.0,5.0 L 43.0,11.0 L 63.0,38.0 L 15.0,103.0 L 5.0,101.0 Z M 0.0,0.0 L 70.0,0.0 L 70.0,108.0 L 0.0,108.0" id="hole" style="fill:#00000066;fill-rule:evenodd;stroke:none;"></path>
  <g id="figure" style="fill:none;stroke:#ff0000;stroke-linecap:round" transform="translate(5.0, 5.0)">
    <path d="M 10.0,90.0 L 20.0,60.0"></path>
    <path d="M 20.0,60.0 L 20.0,30.0"></path>
    <path d="M 20.0,30.0 L 0.0,35.0"></path>
    <path d="M 0.0,35.0 L 0.0,25.0"></path>
    <path d="M 0.0,25.0 L 25.0,20.0"></path>
    <path d="M 25.0,20.0 L 20.0,10.0"></path>
    <path d="M 20.0,10.0 L 25.0,0.0"></path>
    <path d="M 25.0,0.0 L 35.0,0.0"></path>
    <path d="M 35.0,0.0 L 40.0,10.0"></path>
    <path d="M 40.0,10.0 L 35.0,20.0"></path>
    <path d="M 35.0,20.0 L 60.0,25.0"></path>
    <path d="M 60.0,25.0 L 60.0,35.0"></path>
    <path d="M 60.0,35.0 L 40.0,30.0"></path>
    <path d="M 40.0,30.0 L 40.0,60.0"></path>
    <path d="M 40.0,60.0 L 50.0,90.0"></path>
    <path d="M 50.0,90.0 L 40.0,90.0"></path>
    <path d="M 40.0,90.0 L 30.0,65.0"></path>
    <path d="M 30.0,65.0 L 20.0,90.0"></path>
    <path d="M 20.0,90.0 L 10.0,90.0"></path>
    <path d="M 25.0,20.0 L 35.0,20.0"></path>
    <path d="M 25.0,0.0 L 30.0,10.0"></path>
    <path d="M 30.0,10.0 L 20.0,10.0"></path>
    <path d="M 25.0,20.0 L 30.0,10.0"></path>
    <path d="M 30.0,10.0 L 35.0,20.0"></path>
    <path d="M 40.0,10.0 L 30.0,10.0"></path>
    <path d="M 30.0,10.0 L 35.0,0.0"></path>
    <path d="M 20.0,30.0 L 25.0,20.0"></path>
    <path d="M 35.0,20.0 L 40.0,30.0"></path>
    <path d="M 20.0,60.0 L 30.0,65.0"></path>
    <path d="M 30.0,65.0 L 40.0,60.0"></path>
  </g>
</svg>