<svg xmlns="http://www.w3.org/2000/svg" xmlns:xlink="http://www.w3.org/1999/xlink" viewBox="0.0 0.0 79.0 112.0">
  <path d="M 5.0,39.0 L 6.0,19.0 L 20.0,18.0 L 12.0,5.0 L 40.0,5.0 L 58.0,7.0 L 72.0,17.0 L 61.0,31.0 L 45.0,39.0 L 45.0,65.0 L 70.0,59.0 L 68.0,83.0 L 55.0,88.0 L 35.0,104.0 L 29.0,82.0 L 6.0,100.0 L 13.0,77.0 L 19.0,59.0 L 5.0,61.0 Z M 0.0,0.0 L 79.0,0.0 L 79.0,112.0 L 0.0,112.0" id="hole" style="fill:#00000066;fill-rule:evenodd;stroke:none;"></path>
  <g id="figure" style="fill:none;stroke:#ff0000;stroke-linecap:round" transform="translate(5.0, 5.0)">
    <path d="M 0.0,32.0 L 20.0,12.0"></path>
    <path d="M 0.0,32.0 L 20.0,52.0"></path>
    <path d="M 20.0,12.0 L 40.0,32.0"></path>
    <path d="M 20.0,52.0 L 35.0,74.0"></path>
    <path d="M 20.0,52.0 L 40.0,32.0"></path>
    <path d="M 34.0,0.0 L 40.0,32.0"></path>
    <path d="M 34.0,0.0 L 65.0,12.0"></path>
    <path d="M 35.0,74.0 L 40.0,102.0"></path>
    <path d="M 35.0,74.0 L 63.0,69.0"></path>
    <path d="M 40.0,32.0 L 65.0,12.0"></path>
    <path d="M 40.0,32.0 L 67.0,46.0"></path>
    <path d="M 40.0,102.0 L 69.0,95.0"></path>
    <path d="M 63.0,69.0 L 67.0,46.0"></path>
    <path d="M 63.0,69.0 L 69.0,95.0"></path>
    <path d="M 65.0,12.0 L 67.0,46.0"></path>
  </g>
</svg>