<svg xmlns="http://www.w3.org/2000/svg" xmlns:xlink="http://www.w3.org/1999/xlink" viewBox="0.0 0.0 117.0 132.0">
  <path d="M 60.0,5.0 L 66.0,8.0 L 73.0,38.0 L 90.0,48.0 L 112.0,41.0 L 99.0,77.0 L 106.0,93.0 L 100.0,110.0 L 75.0,115.0 L 52.0,122.0 L 58.0,101.0 L 68.0,77.0 L 44.0,80.0 L 27.0,74.0 L 24.0,127.0 L 7.0,86.0 L 5.0,58.0 L 5.0,35.0 Z M 0.0,0.0 L 117.0,0.0 L 117.0,132.0 L 0.0,132.0" id="hole" style="fill:#00000066;fill-rule:evenodd;stroke:none;"></path>
  <g id="figure" style="fill:none;stroke:#ff0000;stroke-linecap:round" transform="translate(5.0, 5.0)">
    <path d="M 0.0,100.0 L 15.0,68.0"></path>
    <path d="M 0.0,100.0 L 29.0,122.0"></path>
    <path d="M 15.0,68.0 L 52.0,71.0"></path>
    <path d="M 15.0,68.0 L 61.0,4.0"></path>
    <path d="M 29.0,122.0 L 59.0,105.0"></path>
    <path d="M 29.0,122.0 L 94.0,108.0"></path>
    <path d="M 52.0,37.0 L 52.0,71.0"></path>
    <path d="M 52.0,37.0 L 61.0,4.0"></path>
    <path d="M 52.0,37.0 L 82.0,54.0"></path>
    <path d="M 52.0,71.0 L 59.0,105.0"></path>
    <path d="M 52.0,71.0 L 82.0,54.0"></path>
    <path d="M 59.0,105.0 L 94.0,108.0"></path>
    <path d="M 61.0,4.0 L 96.0,0.0"></path>
    <path d="M 82.0,54.0 L 104.0,34.0"></path>
    <path d="M 82.0,54.0 L 107.0,73.0"></path>
    <path d="M 94.0,108.0 L 107.0,73.0"></path>
    <path d="M 96.0,0.0 L 104.0,34.0"></path>
    <path d="M 104.0,34.0 L 107.0,73.0"></path>
  </g>
</svg>