<svg xmlns="http://www.w3.org/2000/svg" xmlns:xlink="http://www.w3.org/1999/xlink" viewBox="0.0 0.0 114.0 67.0">
  <path d="M 5.0,9.0 L 16.0,5.0 L 26.0,17.0 L 32.0,5.0 L 46.0,6.0 L 61.0,5.0 L 109.0,5.0 L 109.0,30.0 L 98.0,34.0 L 102.0,46.0 L 109.0,58.0 L 87.0,62.0 L 72.0,62.0 L 63.0,54.0 L 45.0,62.0 L 30.0,62.0 L 17.0,58.0 L 5.0,61.0 Z M 0.0,0.0 L 114.0,0.0 L 114.0,67.0 L 0.0,67.0" id="hole" style="fill:#00000066;fill-rule:evenodd;stroke:none;"></path>
  <g id="figure" style="fill:none;stroke:#ff0000;stroke-linecap:round" transform="translate(5.0, 5.0)">
    <path d="M 26.0,37.0 L 22.0,12.0"></path>
    <path d="M 26.0,37.0 L 4.0,21.0"></path>
    <path d="M 22.0,12.0 L 2.0,20.0"></path>
    <path d="M 2.0,20.0 L 5.0,0.0"></path>
    <path d="M 2.0,20.0 L 24.0,29.0"></path>
    <path d="M 4.0,21.0 L 24.0,29.0"></path>
    <path d="M 5.0,0.0 L 25.0,12.0"></path>
    <path d="M 24.0,29.0 L 2.0,19.0"></path>
    <path d="M 25.0,12.0 L 2.0,19.0"></path>
    <path d="M 25.0,12.0 L 5.0,23.0"></path>
    <path d="M 2.0,19.0 L 20.0,34.0"></path>
    <path d="M 5.0,23.0 L 0.0,46.0"></path>
    <path d="M 5.0,23.0 L 20.0,40.0"></path>
    <path d="M 20.0,34.0 L 0.0,46.0"></path>
    <path d="M 0.0,46.0 L 20.0,40.0"></path>
  </g>
</svg>