<svg xmlns="http://www.w3.org/2000/svg" xmlns:xlink="http://www.w3.org/1999/xlink" viewBox="0.0 0.0 98.0 151.0">
  <path d="M 17.0,68.0 L 53.0,25.0 L 73.0,5.0 L 93.0,25.0 L 93.0,129.0 L 86.0,146.0 L 60.0,135.0 L 5.0,86.0 Z M 0.0,0.0 L 98.0,0.0 L 98.0,151.0 L 0.0,151.0" id="hole" style="fill:#00000066;fill-rule:evenodd;stroke:none;"></path>
  <g id="figure" style="fill:none;stroke:#ff0000;stroke-linecap:round" transform="translate(5.0, 5.0)">
    <path d="M 12.0,56.0 L 28.0,41.0"></path>
    <path d="M 12.0,56.0 L 29.0,40.0"></path>
    <path d="M 28.0,41.0 L 52.0,35.0"></path>
    <path d="M 28.0,41.0 L 5.0,41.0"></path>
    <path d="M 29.0,40.0 L 5.0,41.0"></path>
    <path d="M 29.0,40.0 L 15.0,20.0"></path>
    <path d="M 52.0,35.0 L 28.0,43.0"></path>
    <path d="M 52.0,35.0 L 23.0,47.0"></path>
    <path d="M 5.0,41.0 L 15.0,20.0"></path>
    <path d="M 5.0,41.0 L 28.0,43.0"></path>
    <path d="M 5.0,41.0 L 25.0,30.0"></path>
    <path d="M 15.0,20.0 L 2.0,0.0"></path>
    <path d="M 15.0,20.0 L 14.0,45.0"></path>
    <path d="M 28.0,43.0 L 39.0,70.0"></path>
    <path d="M 23.0,47.0 L 0.0,63.0"></path>
    <path d="M 23.0,47.0 L 39.0,70.0"></path>
    <path d="M 25.0,30.0 L 14.0,45.0"></path>
    <path d="M 11.0,14.0 L 2.0,0.0"></path>
    <path d="M 11.0,14.0 L 14.0,42.0"></path>
    <path d="M 2.0,0.0 L 10.0,17.0"></path>
    <path d="M 14.0,45.0 L 10.0,17.0"></path>
    <path d="M 0.0,63.0 L 16.0,86.0"></path>
    <path d="M 39.0,70.0 L 16.0,86.0"></path>
    <path d="M 10.0,17.0 L 26.0,28.0"></path>
    <path d="M 14.0,42.0 L 26.0,28.0"></path>
  </g>
</svg>