<svg xmlns="http://www.w3.org/2000/svg" xmlns:xlink="http://www.w3.org/1999/xlink" viewBox="0.0 0.0 196.0 196.0">
  <path d="M 166.0,166.0 L 123.0,191.0 L 73.0,191.0 L 30.0,166.0 L 5.0,123.0 L 5.0,73.0 L 30.0,30.0 L 73.0,5.0 L 123.0,5.0 L 166.0,30.0 L 191.0,73.0 L 98.0,98.0 L 191.0,123.0 Z M 0.0,0.0 L 196.0,0.0 L 196.0,196.0 L 0.0,196.0" id="hole" style="fill:#00000066;fill-rule:evenodd;stroke:none;"></path>
  <g id="figure" style="fill:none;stroke:#ff0000;stroke-linecap:round" transform="translate(2.0, 2.0)">
    <path d="M 36.0,141.0 L 36.0,156.0"></path>
    <path d="M 36.0,156.0 L 41.0,156.0"></path>
    <path d="M 41.0,156.0 L 56.0,141.0"></path>
    <path d="M 56.0,141.0 L 36.0,141.0"></path>
    <path d="M 36.0,141.0 L 36.0,86.0"></path>
    <path d="M 36.0,86.0 L 51.0,56.0"></path>
    <path d="M 51.0,56.0 L 96.0,36.0"></path>
    <path d="M 96.0,36.0 L 141.0,56.0"></path>
    <path d="M 141.0,56.0 L 156.0,86.0"></path>
    <path d="M 156.0,86.0 L 156.0,141.0"></path>
    <path d="M 156.0,141.0 L 136.0,141.0"></path>
    <path d="M 136.0,141.0 L 151.0,156.0"></path>
    <path d="M 151.0,156.0 L 156.0,156.0"></path>
    <path d="M 156.0,156.0 L 156.0,141.0"></path>
    <path d="M 136.0,141.0 L 121.0,156.0"></path>
    <path d="M 121.0,156.0 L 106.0,156.0"></path>
    <path d="M 106.0,156.0 L 106.0,141.0"></path>
    <path d="M 106.0,141.0 L 136.0,141.0"></path>
    <path d="M 56.0,141.0 L 86.0,141.0"></path>
    <path d="M 86.0,141.0 L 86.0,156.0"></path>
    <path d="M 86.0,156.0 L 71.0,156.0"></path>
    <path d="M 71.0,156.0 L 56.0,141.0"></path>
    <path d="M 86.0,141.0 L 106.0,141.0"></path>
    <path d="M 71.0,81.0 L 71.0,96.0"></path>
    <path d="M 71.0,96.0 L 86.0,96.0"></path>
    <path d="M 86.0,96.0 L 86.0,81.0"></path>
    <path d="M 86.0,81.0 L 71.0,81.0"></path>
    <path d="M 106.0,81.0 L 106.0,96.0"></path>
    <path d="M 106.0,96.0 L 121.0,96.0"></path>
    <path d="M 121.0,96.0 L 121.0,81.0"></path>
    <path d="M 121.0,81.0 L 106.0,81.0"></path>
    <path d="M 51.0,56.0 L 71.0,81.0"></path>
    <path d="M 71.0,81.0 L 36.0,86.0"></path>
    <path d="M 141.0,56.0 L 121.0,81.0"></path>
    <path d="M 121.0,81.0 L 156.0,86.0"></path>
    <path d="M 46.0,131.0 L 56.0,116.0"></path>
    <path d="M 56.0,116.0 L 66.0,116.0"></path>
    <path d="M 66.0,116.0 L 71.0,131.0"></path>
    <path d="M 71.0,131.0 L 86.0,131.0"></path>
    <path d="M 86.0,131.0 L 91.0,116.0"></path>
    <path d="M 91.0,116.0 L 101.0,116.0"></path>
    <path d="M 101.0,116.0 L 106.0,131.0"></path>
    <path d="M 106.0,131.0 L 121.0,131.0"></path>
    <path d="M 121.0,131.0 L 126.0,116.0"></path>
    <path d="M 126.0,116.0 L 136.0,116.0"></path>
    <path d="M 136.0,116.0 L 146.0,131.0"></path>
    <path d="M 86.0,96.0 L 91.0,116.0"></path>
    <path d="M 106.0,96.0 L 101.0,116.0"></path>
  </g>
</svg>