<svg xmlns="http://www.w3.org/2000/svg" xmlns:xlink="http://www.w3.org/1999/xlink" viewBox="0.0 0.0 71.0 88.0">
  <path d="M 63.0,5.0 L 63.0,57.0 L 36.0,57.0 L 36.0,83.0 L 9.0,83.0 L 9.0,31.0 L 36.0,31.0 L 36.0,5.0 Z M 0.0,0.0 L 71.0,0.0 L 71.0,88.0 L 0.0,88.0" id="hole" style="fill:#00000066;fill-rule:evenodd;stroke:none;"></path>
  <g id="figure" style="fill:none;stroke:#ff0000;stroke-linecap:round" transform="translate(-2.0, 4.0)">
    <path d="M 31.0,20.0 L 25.0,24.0"></path>
    <path d="M 25.0,24.0 L 19.0,20.0"></path>
    <path d="M 19.0,20.0 L 19.0,13.0"></path>
    <path d="M 19.0,13.0 L 25.0,10.0"></path>
    <path d="M 25.0,10.0 L 31.0,13.0"></path>
    <path d="M 31.0,13.0 L 31.0,20.0"></path>
    <path d="M 44.0,20.0 L 38.0,24.0"></path>
    <path d="M 38.0,24.0 L 31.0,20.0"></path>
    <path d="M 31.0,20.0 L 31.0,13.0"></path>
    <path d="M 31.0,13.0 L 38.0,10.0"></path>
    <path d="M 38.0,10.0 L 44.0,13.0"></path>
    <path d="M 44.0,13.0 L 44.0,20.0"></path>
    <path d="M 56.0,20.0 L 50.0,24.0"></path>
    <path d="M 50.0,24.0 L 44.0,20.0"></path>
    <path d="M 44.0,20.0 L 44.0,13.0"></path>
    <path d="M 44.0,13.0 L 50.0,10.0"></path>
    <path d="M 50.0,10.0 L 56.0,13.0"></path>
    <path d="M 56.0,13.0 L 56.0,20.0"></path>
    <path d="M 50.0,31.0 L 44.0,34.0"></path>
    <path d="M 44.0,34.0 L 38.0,31.0"></path>
    <path d="M 38.0,31.0 L 38.0,24.0"></path>
    <path d="M 38.0,24.0 L 44.0,20.0"></path>
    <path d="M 44.0,20.0 L 50.0,24.0"></path>
    <path d="M 50.0,24.0 L 50.0,31.0"></path>
    <path d="M 38.0,31.0 L 31.0,34.0"></path>
    <path d="M 31.0,34.0 L 25.0,31.0"></path>
    <path d="M 25.0,31.0 L 25.0,24.0"></path>
    <path d="M 25.0,24.0 L 31.0,20.0"></path>
    <path d="M 31.0,20.0 L 38.0,24.0"></path>
    <path d="M 38.0,24.0 L 38.0,31.0"></path>
    <path d="M 25.0,31.0 L 19.0,34.0"></path>
    <path d="M 19.0,34.0 L 13.0,31.0"></path>
    <path d="M 13.0,31.0 L 13.0,24.0"></path>
    <path d="M 13.0,24.0 L 19.0,20.0"></path>
    <path d="M 19.0,20.0 L 25.0,24.0"></path>
    <path d="M 25.0,24.0 L 25.0,31.0"></path>
    <path d="M 62.0,31.0 L 56.0,34.0"></path>
    <path d="M 56.0,34.0 L 50.0,31.0"></path>
    <path d="M 50.0,31.0 L 50.0,24.0"></path>
    <path d="M 50.0,24.0 L 56.0,20.0"></path>
    <path d="M 56.0,20.0 L 62.0,24.0"></path>
    <path d="M 62.0,24.0 L 62.0,31.0"></path>
    <path d="M 56.0,41.0 L 50.0,45.0"></path>
    <path d="M 50.0,45.0 L 44.0,41.0"></path>
    <path d="M 44.0,41.0 L 44.0,34.0"></path>
    <path d="M 44.0,34.0 L 50.0,31.0"></path>
    <path d="M 50.0,31.0 L 56.0,34.0"></path>
    <path d="M 56.0,34.0 L 56.0,41.0"></path>
    <path d="M 44.0,41.0 L 38.0,45.0"></path>
    <path d="M 38.0,45.0 L 31.0,41.0"></path>
    <path d="M 31.0,41.0 L 31.0,34.0"></path>
    <path d="M 31.0,34.0 L 38.0,31.0"></path>
    <path d="M 38.0,31.0 L 44.0,34.0"></path>
    <path d="M 44.0,34.0 L 44.0,41.0"></path>
    <path d="M 31.0,41.0 L 25.0,45.0"></path>
    <path d="M 25.0,45.0 L 19.0,41.0"></path>
    <path d="M 19.0,41.0 L 19.0,34.0"></path>
    <path d="M 19.0,34.0 L 25.0,31.0"></path>
    <path d="M 25.0,31.0 L 31.0,34.0"></path>
    <path d="M 31.0,34.0 L 31.0,41.0"></path>
    <path d="M 19.0,41.0 L 13.0,45.0"></path>
    <path d="M 13.0,45.0 L 7.0,41.0"></path>
    <path d="M 7.0,41.0 L 7.0,34.0"></path>
    <path d="M 7.0,34.0 L 13.0,31.0"></path>
    <path d="M 13.0,31.0 L 19.0,34.0"></path>
    <path d="M 19.0,34.0 L 19.0,41.0"></path>
    <path d="M 68.0,41.0 L 62.0,45.0"></path>
    <path d="M 62.0,45.0 L 56.0,41.0"></path>
    <path d="M 56.0,41.0 L 56.0,34.0"></path>
    <path d="M 56.0,34.0 L 62.0,31.0"></path>
    <path d="M 62.0,31.0 L 68.0,34.0"></path>
    <path d="M 68.0,34.0 L 68.0,41.0"></path>
    <path d="M 62.0,52.0 L 56.0,55.0"></path>
    <path d="M 56.0,55.0 L 50.0,52.0"></path>
    <path d="M 50.0,52.0 L 50.0,45.0"></path>
    <path d="M 50.0,45.0 L 56.0,41.0"></path>
    <path d="M 56.0,41.0 L 62.0,45.0"></path>
    <path d="M 62.0,45.0 L 62.0,52.0"></path>
    <path d="M 50.0,52.0 L 44.0,55.0"></path>
    <path d="M 44.0,55.0 L 38.0,52.0"></path>
    <path d="M 38.0,52.0 L 38.0,45.0"></path>
    <path d="M 38.0,45.0 L 44.0,41.0"></path>
    <path d="M 44.0,41.0 L 50.0,45.0"></path>
    <path d="M 50.0,45.0 L 50.0,52.0"></path>
    <path d="M 38.0,52.0 L 31.0,55.0"></path>
    <path d="M 31.0,55.0 L 25.0,52.0"></path>
    <path d="M 25.0,52.0 L 25.0,45.0"></path>
    <path d="M 25.0,45.0 L 31.0,41.0"></path>
    <path d="M 31.0,41.0 L 38.0,45.0"></path>
    <path d="M 38.0,45.0 L 38.0,52.0"></path>
    <path d="M 25.0,52.0 L 19.0,55.0"></path>
    <path d="M 19.0,55.0 L 13.0,52.0"></path>
    <path d="M 13.0,52.0 L 13.0,45.0"></path>
    <path d="M 13.0,45.0 L 19.0,41.0"></path>
    <path d="M 19.0,41.0 L 25.0,45.0"></path>
    <path d="M 25.0,45.0 L 25.0,52.0"></path>
    <path d="M 19.0,62.0 L 13.0,66.0"></path>
    <path d="M 13.0,66.0 L 7.0,62.0"></path>
    <path d="M 7.0,62.0 L 7.0,55.0"></path>
    <path d="M 7.0,55.0 L 13.0,52.0"></path>
    <path d="M 13.0,52.0 L 19.0,55.0"></path>
    <path d="M 19.0,55.0 L 19.0,62.0"></path>
    <path d="M 44.0,62.0 L 38.0,66.0"></path>
    <path d="M 38.0,66.0 L 31.0,62.0"></path>
    <path d="M 31.0,62.0 L 31.0,55.0"></path>
    <path d="M 31.0,55.0 L 38.0,52.0"></path>
    <path d="M 38.0,52.0 L 44.0,55.0"></path>
    <path d="M 44.0,55.0 L 44.0,62.0"></path>
    <path d="M 68.0,62.0 L 62.0,66.0"></path>
    <path d="M 62.0,66.0 L 56.0,62.0"></path>
    <path d="M 56.0,62.0 L 56.0,55.0"></path>
    <path d="M 56.0,55.0 L 62.0,52.0"></path>
    <path d="M 62.0,52.0 L 68.0,55.0"></path>
    <path d="M 68.0,55.0 L 68.0,62.0"></path>
  </g>
</svg>