<svg xmlns="http://www.w3.org/2000/svg" xmlns:xlink="http://www.w3.org/1999/xlink" viewBox="0.0 0.0 99.0 100.0">
  <path d="M 93.0,74.0 L 61.0,71.0 L 41.0,95.0 L 35.0,64.0 L 6.0,52.0 L 33.0,36.0 L 35.0,5.0 L 58.0,26.0 L 89.0,18.0 L 76.0,47.0 Z M 0.0,0.0 L 99.0,0.0 L 99.0,100.0 L 0.0,100.0" id="hole" style="fill:#00000066;fill-rule:evenodd;stroke:none;"></path>
  <g id="figure" style="fill:none;stroke:#ff0000;stroke-linecap:round" transform="translate(-1.0, -1.0)">
    <path d="M 50.0,74.0 L 50.0,16.0"></path>
    <path d="M 50.0,16.0 L 33.0,57.0"></path>
    <path d="M 33.0,57.0 L 50.0,74.0"></path>
    <path d="M 33.0,57.0 L 36.0,69.0"></path>
    <path d="M 36.0,69.0 L 50.0,74.0"></path>
    <path d="M 50.0,74.0 L 50.0,79.0"></path>
    <path d="M 50.0,79.0 L 39.0,84.0"></path>
    <path d="M 39.0,84.0 L 36.0,69.0"></path>
    <path d="M 50.0,79.0 L 62.0,84.0"></path>
    <path d="M 62.0,84.0 L 65.0,69.0"></path>
    <path d="M 65.0,69.0 L 50.0,74.0"></path>
    <path d="M 50.0,74.0 L 67.0,57.0"></path>
    <path d="M 67.0,57.0 L 65.0,69.0"></path>
    <path d="M 67.0,57.0 L 50.0,16.0"></path>
    <path d="M 62.0,84.0 L 95.0,37.0"></path>
    <path d="M 95.0,37.0 L 50.0,79.0"></path>
    <path d="M 39.0,84.0 L 15.0,50.0"></path>
    <path d="M 15.0,50.0 L 20.0,50.0"></path>
    <path d="M 20.0,50.0 L 50.0,79.0"></path>
    <path d="M 20.0,50.0 L 6.0,64.0"></path>
    <path d="M 6.0,64.0 L 15.0,50.0"></path>
  </g>
</svg>