<svg xmlns="http://www.w3.org/2000/svg" xmlns:xlink="http://www.w3.org/1999/xlink" viewBox="0.0 0.0 168.0 160.0">
  <path d="M 84.0,125.0 L 74.0,155.0 L 9.0,155.0 L 9.0,80.0 L 49.0,70.0 L 9.0,60.0 L 9.0,5.0 L 79.0,5.0 L 89.0,35.0 L 99.0,5.0 L 159.0,5.0 L 159.0,60.0 L 124.0,75.0 L 159.0,80.0 L 159.0,155.0 L 94.0,155.0 Z M 0.0,0.0 L 168.0,0.0 L 168.0,160.0 L 0.0,160.0" id="hole" style="fill:#00000066;fill-rule:evenodd;stroke:none;"></path>
  <g id="figure" style="fill:none;stroke:#ff0000;stroke-linecap:round" transform="translate(4.0, 0.0)">
    <path d="M 54.0,143.0 L 67.0,143.0"></path>
    <path d="M 67.0,143.0 L 64.0,152.0"></path>
    <path d="M 64.0,152.0 L 48.0,152.0"></path>
    <path d="M 48.0,152.0 L 46.0,145.0"></path>
    <path d="M 46.0,145.0 L 54.0,143.0"></path>
    <path d="M 54.0,143.0 L 58.0,109.0"></path>
    <path d="M 102.0,108.0 L 95.0,146.0"></path>
    <path d="M 95.0,146.0 L 89.0,147.0"></path>
    <path d="M 89.0,147.0 L 91.0,152.0"></path>
    <path d="M 91.0,152.0 L 104.0,152.0"></path>
    <path d="M 104.0,152.0 L 105.0,144.0"></path>
    <path d="M 105.0,144.0 L 95.0,146.0"></path>
    <path d="M 58.0,109.0 L 102.0,108.0"></path>
    <path d="M 102.0,108.0 L 125.0,85.0"></path>
    <path d="M 125.0,85.0 L 125.0,70.0"></path>
    <path d="M 125.0,70.0 L 101.0,41.0"></path>
    <path d="M 101.0,41.0 L 82.0,34.0"></path>
    <path d="M 82.0,34.0 L 78.0,33.0"></path>
    <path d="M 78.0,33.0 L 61.0,32.0"></path>
    <path d="M 61.0,32.0 L 33.0,69.0"></path>
    <path d="M 33.0,69.0 L 37.0,98.0"></path>
    <path d="M 37.0,98.0 L 42.0,102.0"></path>
    <path d="M 42.0,102.0 L 58.0,109.0"></path>
    <path d="M 42.0,102.0 L 25.0,118.0"></path>
    <path d="M 25.0,118.0 L 22.0,115.0"></path>
    <path d="M 22.0,115.0 L 37.0,98.0"></path>
    <path d="M 25.0,118.0 L 13.0,131.0"></path>
    <path d="M 13.0,131.0 L 9.0,128.0"></path>
    <path d="M 9.0,128.0 L 20.0,121.0"></path>
    <path d="M 20.0,121.0 L 17.0,119.0"></path>
    <path d="M 17.0,119.0 L 8.0,123.0"></path>
    <path d="M 8.0,123.0 L 6.0,118.0"></path>
    <path d="M 6.0,118.0 L 22.0,115.0"></path>
    <path d="M 17.0,119.0 L 22.0,115.0"></path>
    <path d="M 20.0,121.0 L 25.0,118.0"></path>
    <path d="M 33.0,69.0 L 13.0,86.0"></path>
    <path d="M 13.0,86.0 L 19.0,94.0"></path>
    <path d="M 19.0,94.0 L 8.0,103.0"></path>
    <path d="M 8.0,103.0 L 1.0,93.0"></path>
    <path d="M 1.0,93.0 L 9.0,80.0"></path>
    <path d="M 9.0,80.0 L 13.0,86.0"></path>
    <path d="M 61.0,32.0 L 61.0,18.0"></path>
    <path d="M 61.0,18.0 L 68.0,13.0"></path>
    <path d="M 68.0,13.0 L 61.0,7.0"></path>
    <path d="M 61.0,7.0 L 54.0,12.0"></path>
    <path d="M 54.0,12.0 L 61.0,18.0"></path>
    <path d="M 78.0,33.0 L 78.0,24.0"></path>
    <path d="M 78.0,24.0 L 82.0,24.0"></path>
    <path d="M 82.0,24.0 L 82.0,34.0"></path>
    <path d="M 82.0,24.0 L 85.0,23.0"></path>
    <path d="M 85.0,23.0 L 75.0,21.0"></path>
    <path d="M 75.0,21.0 L 74.0,24.0"></path>
    <path d="M 74.0,24.0 L 78.0,24.0"></path>
    <path d="M 101.0,41.0 L 103.0,22.0"></path>
    <path d="M 103.0,22.0 L 112.0,20.0"></path>
    <path d="M 112.0,20.0 L 106.0,12.0"></path>
    <path d="M 106.0,12.0 L 98.0,14.0"></path>
    <path d="M 98.0,14.0 L 103.0,22.0"></path>
    <path d="M 125.0,85.0 L 133.0,91.0"></path>
    <path d="M 133.0,91.0 L 145.0,89.0"></path>
    <path d="M 145.0,89.0 L 148.0,85.0"></path>
    <path d="M 148.0,85.0 L 152.0,89.0"></path>
    <path d="M 152.0,89.0 L 149.0,92.0"></path>
    <path d="M 149.0,92.0 L 145.0,89.0"></path>
    <path d="M 138.0,98.0 L 138.0,104.0"></path>
    <path d="M 138.0,104.0 L 144.0,104.0"></path>
    <path d="M 144.0,104.0 L 144.0,98.0"></path>
    <path d="M 144.0,98.0 L 138.0,98.0"></path>
    <path d="M 138.0,98.0 L 133.0,91.0"></path>
    <path d="M 133.0,91.0 L 129.0,105.0"></path>
    <path d="M 129.0,105.0 L 133.0,105.0"></path>
    <path d="M 133.0,105.0 L 133.0,91.0"></path>
    <path d="M 125.0,70.0 L 138.0,47.0"></path>
    <path d="M 138.0,47.0 L 148.0,48.0"></path>
    <path d="M 148.0,48.0 L 159.0,36.0"></path>
    <path d="M 159.0,36.0 L 154.0,33.0"></path>
    <path d="M 154.0,33.0 L 140.0,43.0"></path>
    <path d="M 140.0,43.0 L 133.0,26.0"></path>
    <path d="M 133.0,26.0 L 125.0,25.0"></path>
    <path d="M 125.0,25.0 L 130.0,43.0"></path>
    <path d="M 130.0,43.0 L 138.0,47.0"></path>
    <path d="M 138.0,47.0 L 140.0,43.0"></path>
    <path d="M 60.0,55.0 L 111.0,58.0"></path>
    <path d="M 111.0,58.0 L 114.0,87.0"></path>
    <path d="M 114.0,87.0 L 56.0,92.0"></path>
    <path d="M 56.0,92.0 L 60.0,55.0"></path>
    <path d="M 69.0,74.0 L 75.0,74.0"></path>
    <path d="M 75.0,74.0 L 75.0,82.0"></path>
    <path d="M 75.0,82.0 L 69.0,82.0"></path>
    <path d="M 69.0,82.0 L 69.0,74.0"></path>
    <path d="M 75.0,74.0 L 81.0,74.0"></path>
    <path d="M 81.0,74.0 L 81.0,82.0"></path>
    <path d="M 81.0,82.0 L 75.0,82.0"></path>
    <path d="M 81.0,74.0 L 87.0,74.0"></path>
    <path d="M 87.0,74.0 L 87.0,82.0"></path>
    <path d="M 87.0,82.0 L 81.0,82.0"></path>
    <path d="M 87.0,74.0 L 93.0,74.0"></path>
    <path d="M 93.0,74.0 L 93.0,81.0"></path>
    <path d="M 93.0,81.0 L 87.0,82.0"></path>
    <path d="M 93.0,74.0 L 99.0,74.0"></path>
    <path d="M 99.0,74.0 L 99.0,80.0"></path>
    <path d="M 99.0,80.0 L 93.0,81.0"></path>
    <path d="M 99.0,74.0 L 105.0,74.0"></path>
    <path d="M 105.0,74.0 L 105.0,79.0"></path>
    <path d="M 105.0,79.0 L 99.0,80.0"></path>
    <path d="M 69.0,82.0 L 56.0,92.0"></path>
    <path d="M 105.0,79.0 L 114.0,87.0"></path>
    <path d="M 77.0,65.0 L 72.0,57.0"></path>
    <path d="M 72.0,57.0 L 65.0,64.0"></path>
    <path d="M 65.0,64.0 L 71.0,71.0"></path>
    <path d="M 71.0,71.0 L 77.0,65.0"></path>
    <path d="M 77.0,65.0 L 82.0,66.0"></path>
    <path d="M 82.0,66.0 L 85.0,63.0"></path>
    <path d="M 85.0,63.0 L 88.0,66.0"></path>
    <path d="M 88.0,66.0 L 85.0,70.0"></path>
    <path d="M 85.0,70.0 L 82.0,66.0"></path>
    <path d="M 88.0,66.0 L 94.0,65.0"></path>
    <path d="M 94.0,65.0 L 99.0,59.0"></path>
    <path d="M 99.0,59.0 L 103.0,65.0"></path>
    <path d="M 103.0,65.0 L 98.0,70.0"></path>
    <path d="M 98.0,70.0 L 94.0,65.0"></path>
    <path d="M 103.0,65.0 L 111.0,58.0"></path>
    <path d="M 65.0,64.0 L 60.0,55.0"></path>
    <path d="M 85.0,70.0 L 87.0,74.0"></path>
    <path d="M 114.0,87.0 L 125.0,85.0"></path>
    <path d="M 56.0,92.0 L 37.0,98.0"></path>
    <path d="M 60.0,55.0 L 61.0,32.0"></path>
    <path d="M 111.0,58.0 L 101.0,41.0"></path>
  </g>
</svg>